Coordinates
version=1
nRows=17
nColumns=40
inDegrees=yes
endheader
time	pelvis_tilt	pelvis_list	pelvis_rotation	pelvis_tx	pelvis_ty	pelvis_tz	hip_flexion_r	hip_adduction_r	hip_rotation_r	knee_angle_r	knee_angle_r_beta	ankle_angle_r	subtalar_angle_r	mtp_angle_r	hip_flexion_l	hip_adduction_l	hip_rotation_l	knee_angle_l	knee_angle_l_beta	ankle_angle_l	subtalar_angle_l	mtp_angle_l	lumbar_extension	lumbar_bending	lumbar_rotation	arm_flex_r	arm_add_r	arm_rot_r	elbow_flex_r	pro_sup_r	wrist_flex_r	wrist_dev_r	arm_flex_l	arm_add_l	arm_rot_l	elbow_flex_l	pro_sup_l	wrist_flex_l	wrist_dev_l
1760624582.41768503	      3.73624135	     -3.18701247	     -0.32568355	      0.16439117	      0.88437820	     -0.00479579	     80.00000000	     -7.00000000	      0.00000000	     80.00000000	      1.39626340	      0.00000000	      0.00000000	      0.00000000	     80.00000000	     -7.00000000	      0.00000000	     80.00000000	      1.39626340	      0.00000000	      0.00000000	      0.00000000	     -9.40258961	     -5.59612741	      4.65190817	     -8.33805206	    -76.36597558	     32.29943190	      0.00000000	      1.96315542	    -31.71318231	    -23.32669699	      9.54196077	     -8.27560774	     15.19144988	      0.00000000	     56.84595391	    -31.58101728	    -13.07924550
1760624582.42768502	      3.75153549	     -3.18281260	     -0.28020656	      0.16441895	      0.88451652	     -0.00466604	     80.00000000	     -7.00000000	      0.00000000	     80.00000000	      1.39626340	      0.00000000	      0.00000000	      0.00000000	     80.00000000	     -7.00000000	      0.00000000	     80.00000000	      1.39626340	      0.00000000	      0.00000000	      0.00000000	     -9.41544021	     -5.59023812	      4.75231439	     -8.23949635	    -75.55200275	     32.33884598	      0.00000000	      1.92515048	    -31.72083459	    -23.31100228	      9.60500910	     -8.26546546	     15.19220188	      0.00000000	     56.84671786	    -31.56212519	    -13.08616941
1760624582.43768501	      3.76322263	     -3.17400945	     -0.24457638	      0.16447324	      0.88466490	     -0.00449942	     80.00000000	     -7.00000000	      0.00000000	     80.00000000	      1.39626340	      0.00000000	      0.00000000	      0.00000000	     80.00000000	     -7.00000000	      0.00000000	     80.00000000	      1.39626340	      0.00000000	      0.00000000	      0.00000000	     -9.42002529	     -5.59220884	      4.85144337	     -8.10769692	    -74.71682194	     32.38658422	      0.00000000	      1.90139084	    -31.72125008	    -23.30452589	      9.66496176	     -8.26433241	     15.19713185	      0.00000000	     56.84867735	    -31.53901020	    -13.08854845
1760624582.44768500	      3.76814704	     -3.15705130	     -0.21569832	      0.16450829	      0.88481078	     -0.00431099	     80.00000000	     -7.00000000	      0.00000000	     80.00000000	      1.39626340	      0.00000000	      0.00000000	      0.00000000	     80.00000000	     -7.00000000	      0.00000000	     80.00000000	      1.39626340	      0.00000000	      0.00000000	      0.00000000	     -9.41807755	     -5.59908316	      4.95154313	     -7.93568110	    -73.87080435	     32.44463206	      0.00000000	      1.89060152	    -31.71474669	    -23.30633120	      9.73520403	     -8.27005485	     15.20883732	      0.00000000	     56.85393657	    -31.51795547	    -13.09484175
1760624582.45768499	      3.76770240	     -3.13645118	     -0.19500899	      0.16454425	      0.88494233	     -0.00408997	     80.00000000	     -7.00000000	      0.00000000	     80.00000000	      1.39626340	      0.00000000	      0.00000000	      0.00000000	     80.00000000	     -7.00000000	      0.00000000	     80.00000000	      1.39626340	      0.00000000	      0.00000000	      0.00000000	     -9.41262933	     -5.61370963	      5.04430537	     -7.71757281	    -73.00429541	     32.51148688	      0.00000000	      1.89115205	    -31.70093068	    -23.31698859	      9.78592374	     -8.28430508	     15.22344954	      0.00000000	     56.85903974	    -31.49315109	    -13.09702224
1760624582.46768498	      3.55095959	     -2.94635234	     -0.24068621	      0.16443561	      0.88497340	     -0.00379256	     80.00000000	     -7.00000000	      0.00000000	     80.00000000	      1.39626340	      0.00000000	      0.00000000	      0.00000000	     80.00000000	     -7.00000000	      0.00000000	     80.00000000	      1.39626340	      0.00000000	      0.00000000	      0.00000000	     -9.13965695	     -5.80997714	      3.88004056	     -1.00109191	    -72.22105058	     36.38190679	      0.00000000	      2.78005181	    -31.21383080	    -24.17063945	      9.01915133	     -8.57752426	     15.25472355	      0.00000000	     56.63615066	    -30.44284517	    -12.98005043
1760624582.47768497	      3.56079180	     -2.93928205	     -0.21059815	      0.16449013	      0.88511467	     -0.00359148	     80.00000000	     -7.00000000	      0.00000000	     80.00000000	      1.39626340	      0.00000000	      0.00000000	      0.00000000	     80.00000000	     -7.00000000	      0.00000000	     80.00000000	      1.39626340	      0.00000000	      0.00000000	      0.00000000	     -9.14885419	     -5.80162875	      3.92109044	     -0.98379982	    -71.32524351	     36.44356325	      0.00000000	      2.75879626	    -31.21500609	    -24.14647264	      9.03983086	     -8.60399755	     15.25322855	      0.00000000	     56.63568703	    -30.43327328	    -12.99815332
1760624582.48768497	      3.56502502	     -2.92539270	     -0.18346862	      0.16451349	      0.88524428	     -0.00338403	     80.00000000	     -7.00000000	      0.00000000	     80.00000000	      1.39626340	      0.00000000	      0.00000000	      0.00000000	     80.00000000	     -7.00000000	      0.00000000	     80.00000000	      1.39626340	      0.00000000	      0.00000000	      0.00000000	     -9.15125631	     -5.79829046	      3.96157205	     -0.93240389	    -70.42122455	     36.50523682	      0.00000000	      2.74487344	    -31.21035994	    -24.12862488	      9.07395942	     -8.63078591	     15.25973916	      0.00000000	     56.63994756	    -30.41969531	    -13.01275702
1760624582.49768496	      3.56585901	     -2.90431284	     -0.15997569	      0.16453338	      0.88537112	     -0.00316622	     80.00000000	     -7.00000000	      0.00000000	     80.00000000	      1.39626340	      0.00000000	      0.00000000	      0.00000000	     80.00000000	     -7.00000000	      0.00000000	     80.00000000	      1.39626340	      0.00000000	      0.00000000	      0.00000000	     -9.14864364	     -5.80176767	      3.99876643	     -0.84989497	    -69.49710367	     36.56867504	      0.00000000	      2.73687918	    -31.20086463	    -24.11643328	      9.10403286	     -8.65619662	     15.26720672	      0.00000000	     56.64193036	    -30.40321547	    -13.02434384
1760624582.50768495	      3.30442951	     -2.57970965	     -0.08261055	      0.16440609	      0.88512516	     -0.00328379	     80.00000000	     -7.00000000	      0.00000000	     80.00000000	      1.39626340	      0.00000000	      0.00000000	      0.00000000	     80.00000000	     -7.00000000	      0.00000000	     80.00000000	      1.39626340	      0.00000000	      0.00000000	      0.00000000	     -8.85215342	     -6.10165576	      3.22511888	      1.95069489	    -68.51087369	     39.01462695	      0.00000000	      2.83316174	    -31.03451439	    -24.21400878	      8.63677919	     -8.84277383	     15.47654960	      0.00000000	     56.62740798	    -30.15996775	    -13.77852375
1760624582.51768494	      3.32222579	     -2.59878708	     -0.07983301	      0.16438679	      0.88527980	     -0.00297975	     80.00000000	     -7.00000000	      0.00000000	     80.00000000	      1.39626340	      0.00000000	      0.00000000	      0.00000000	     80.00000000	     -7.00000000	      0.00000000	     80.00000000	      1.39626340	      0.00000000	      0.00000000	      0.00000000	     -8.88078561	     -6.06245306	      3.27374810	      1.95140341	    -67.56651411	     39.04261155	      0.00000000	      2.80674194	    -31.03221119	    -24.19028111	      8.65657692	     -8.86850027	     15.47538771	      0.00000000	     56.62376956	    -30.14663413	    -13.78661809
1760624582.52768493	      3.33961380	     -2.60174844	     -0.07114821	      0.16439692	      0.88544880	     -0.00271872	     80.00000000	     -7.00000000	      0.00000000	     80.00000000	      1.39626340	      0.00000000	      0.00000000	      0.00000000	     80.00000000	     -7.00000000	      0.00000000	     80.00000000	      1.39626340	      0.00000000	      0.00000000	      0.00000000	     -8.89552871	     -6.02702786	      3.31708176	      1.97195532	    -66.62094314	     39.06693269	      0.00000000	      2.78338174	    -31.02724650	    -24.17023119	      8.68915777	     -8.90137575	     15.48056774	      0.00000000	     56.62321658	    -30.13567001	    -13.80012767
1760624582.53768492	      3.35389309	     -2.59892602	     -0.06093203	      0.16443099	      0.88559973	     -0.00243146	     80.00000000	     -7.00000000	      0.00000000	     80.00000000	      1.39626340	      0.00000000	      0.00000000	      0.00000000	     80.00000000	     -7.00000000	      0.00000000	     80.00000000	      1.39626340	      0.00000000	      0.00000000	      0.00000000	     -8.90501823	     -6.00159781	      3.35026350	      2.00582797	    -65.65001380	     39.08772862	      0.00000000	      2.76211627	    -31.01854997	    -24.15229771	      8.69620277	     -8.94408916	     15.48853111	      0.00000000	     56.62360156	    -30.11951628	    -13.81368217
1760624582.54768491	      3.36205176	     -2.58895332	     -0.05011854	      0.16444229	      0.88572329	     -0.00213454	     80.00000000	     -7.00000000	      0.00000000	     80.00000000	      1.39626340	      0.00000000	      0.00000000	      0.00000000	     80.00000000	     -7.00000000	      0.00000000	     80.00000000	      1.39626340	      0.00000000	      0.00000000	      0.00000000	     -8.91245764	     -5.98444575	      3.37405976	      2.05846252	    -64.66298509	     39.10956715	      0.00000000	      2.74676896	    -31.00428768	    -24.13522044	      8.70284605	     -8.98451307	     15.49982889	      0.00000000	     56.62434507	    -30.09192791	    -13.81872360
1760624582.55768490	      3.36368843	     -2.56418969	     -0.03903535	      0.16445053	      0.88585539	     -0.00190151	     80.00000000	     -7.00000000	      0.00000000	     80.00000000	      1.39626340	      0.00000000	      0.00000000	      0.00000000	     80.00000000	     -7.00000000	      0.00000000	     80.00000000	      1.39626340	      0.00000000	      0.00000000	      0.00000000	     -8.91416197	     -5.96972835	      3.38632342	      2.12494452	    -63.67233935	     39.12848299	      0.00000000	      2.73163622	    -30.98488424	    -24.12125023	      8.72024050	     -9.02803677	     15.51812588	      0.00000000	     56.62806593	    -30.06591995	    -13.83120339
1760624582.56768489	      3.36585211	     -2.53933065	     -0.02424303	      0.16445120	      0.88595040	     -0.00163504	     80.00000000	     -7.00000000	      0.00000000	     80.00000000	      1.39626340	      0.00000000	      0.00000000	      0.00000000	     80.00000000	     -7.00000000	      0.00000000	     80.00000000	      1.39626340	      0.00000000	      0.00000000	      0.00000000	     -8.91438372	     -5.94924785	      3.40327546	      2.19206473	    -62.68829599	     39.14343838	      0.00000000	      2.72037946	    -30.96266670	    -24.10890080	      8.73880108	     -9.06878574	     15.53890066	      0.00000000	     56.63316413	    -30.03868537	    -13.84127122
1760624582.57768512	      3.36480410	     -2.51438526	     -0.01138491	      0.16445595	      0.88604992	     -0.00138068	     80.00000000	     -7.00000000	      0.00000000	     80.00000000	      1.39626340	      0.00000000	      0.00000000	      0.00000000	     80.00000000	     -7.00000000	      0.00000000	     80.00000000	      1.39626340	      0.00000000	      0.00000000	      0.00000000	     -8.91465399	     -5.93133453	      3.41576701	      2.26202434	    -61.68013553	     39.15814216	      0.00000000	      2.71235807	    -30.93582706	    -24.09739592	      8.75008311	     -9.10966157	     15.56350860	      0.00000000	     56.63963703	    -30.00745579	    -13.84970585
